name rise35.5848peak51.9257fall54.8793.mot
datacolumns 19
datarows 17
range 23.33490400000000 23.36157300000000
endheader
time	ground_force1_vx	ground_force1_vy	ground_force1_vz	ground_force1_px	ground_force1_py	ground_force1_pz	ground_force2_vx	ground_force2_vy	ground_force2_vz	ground_force2_px	ground_force2_py	ground_force2_pz	ground_torque1_x	ground_torque1_y	ground_torque1_z	ground_torque2_x	ground_torque2_y	ground_torque2_z	
23.33490400000000	-5.89588400000000	42.34153400000000	-10.53304400000000	0.28548300000000	0.00000000000000	0.10482400000000	-53.04915300000000	804.17355699999996	-51.03619700000000	0.11380100000000	0.00000000000000	-0.08538900000000	0.00000000000000	-6.36048300000000	0.00000000000000	0.00000000000000	-19.74370600000000	0.00000000000000	
23.33657700000000	-6.38288500000000	49.68215600000000	-11.81897300000000	0.29038300000000	0.00000000000000	0.10599500000000	-54.01836100000000	801.76365799999996	-50.71004900000000	0.11281100000000	0.00000000000000	-0.08525800000000	0.00000000000000	-7.22580800000000	0.00000000000000	0.00000000000000	-19.74802700000000	0.00000000000000	
23.33825100000000	-6.73449200000000	57.13041100000000	-12.97848400000000	0.29486000000000	0.00000000000000	0.10704900000000	-55.00615800000000	799.19751900000006	-50.36825000000000	0.11182300000000	0.00000000000000	-0.08512600000000	0.00000000000000	-8.03236000000000	0.00000000000000	0.00000000000000	-19.75499400000000	0.00000000000000	
23.33990400000000	-6.93390400000000	64.59184999999999	-13.98374000000000	0.29898400000000	0.00000000000000	0.10800500000000	-56.01131000000000	796.47118200000000	-50.01069800000000	0.11083700000000	0.00000000000000	-0.08499100000000	0.00000000000000	-8.76187400000000	0.00000000000000	0.00000000000000	-19.76443200000000	0.00000000000000	
23.34157100000000	-6.97146600000000	71.99481400000001	-14.81649800000000	0.30281000000000	0.00000000000000	0.10887700000000	-57.03244800000000	793.58069599999999	-49.63729600000000	0.10985400000000	0.00000000000000	-0.08485500000000	0.00000000000000	-9.40166800000000	0.00000000000000	0.00000000000000	-19.77614200000000	0.00000000000000	
23.34325200000000	-6.84451200000000	79.29268600000000	-15.46819800000000	0.30638200000000	0.00000000000000	0.10967700000000	-58.06806800000000	790.52212799999995	-49.24795200000000	0.10887500000000	0.00000000000000	-0.08471700000000	0.00000000000000	-9.94484700000000	0.00000000000000	0.00000000000000	-19.78989700000000	0.00000000000000	
23.34490600000000	-6.55666000000000	86.46371499999999	-15.93925200000000	0.30973300000000	0.00000000000000	0.11041400000000	-59.11653300000000	787.29158600000005	-48.84257700000000	0.10790100000000	0.00000000000000	-0.08457700000000	0.00000000000000	-10.39000600000000	0.00000000000000	0.00000000000000	-19.80544500000000	0.00000000000000	
23.34657500000000	-6.11671700000000	93.50881500000000	-16.23771500000000	0.31289400000000	0.00000000000000	0.11109700000000	-60.17607300000000	783.88522300000000	-48.42108800000000	0.10693300000000	0.00000000000000	-0.08443500000000	0.00000000000000	-10.74052600000000	0.00000000000000	0.00000000000000	-19.82250800000000	0.00000000000000	
23.34824900000000	-5.53735300000000	100.44787300000000	-16.37755900000000	0.31588700000000	0.00000000000000	0.11173300000000	-61.24479100000000	780.29925900000001	-47.98341300000000	0.10597200000000	0.00000000000000	-0.08429100000000	0.00000000000000	-11.00359600000000	0.00000000000000	0.00000000000000	-19.84078300000000	0.00000000000000	
23.34990500000000	-4.83369000000000	107.31514300000001	-16.37676100000000	0.31873100000000	0.00000000000000	0.11232600000000	-62.32066100000000	776.52999699999998	-47.52948600000000	0.10501900000000	0.00000000000000	-0.08414500000000	0.00000000000000	-11.18909300000000	0.00000000000000	0.00000000000000	-19.85994400000000	0.00000000000000	
23.35157400000000	-4.02193600000000	114.15425300000000	-16.25540000000000	0.32144300000000	0.00000000000000	0.11288100000000	-63.40153600000000	772.57383800000002	-47.05925100000000	0.10407600000000	0.00000000000000	-0.08399600000000	0.00000000000000	-11.30842900000000	0.00000000000000	0.00000000000000	-19.87964000000000	0.00000000000000	
23.35325100000000	-3.11817200000000	121.01330400000001	-16.03390300000000	0.32403600000000	0.00000000000000	0.11340300000000	-64.48515300000000	768.42729999999995	-46.57266700000000	0.10314300000000	0.00000000000000	-0.08384600000000	0.00000000000000	-11.37346500000000	0.00000000000000	0.00000000000000	-19.89950000000000	0.00000000000000	
23.35490600000000	-2.13736300000000	127.94044500000000	-15.73157200000000	0.32652000000000	0.00000000000000	0.11389500000000	-65.56913299999999	764.08703700000001	-46.06970300000000	0.10222100000000	0.00000000000000	-0.08369300000000	0.00000000000000	-11.39558200000000	0.00000000000000	0.00000000000000	-19.91913100000000	0.00000000000000	
23.35657200000000	-1.09261700000000	134.98017200000001	-15.36544800000000	0.32890500000000	0.00000000000000	0.11435900000000	-66.65099400000000	759.54985999999997	-45.55034500000000	0.10131200000000	0.00000000000000	-0.08353700000000	0.00000000000000	-11.38493600000000	0.00000000000000	0.00000000000000	-19.93812000000000	0.00000000000000	
23.35825200000000	0.00526700000000	142.17052300000000	-14.94954200000000	0.33119800000000	0.00000000000000	0.11479900000000	-67.72815100000000	754.81275400000004	-45.01459500000000	0.10041500000000	0.00000000000000	-0.08337900000000	0.00000000000000	-11.34993600000000	0.00000000000000	0.00000000000000	-19.95603700000000	0.00000000000000	
23.35990400000000	1.14800500000000	149.54122699999999	-14.49442900000000	0.33340500000000	0.00000000000000	0.11521700000000	-68.79792600000000	749.87289899999996	-44.46247300000000	0.09953300000000	0.00000000000000	-0.08321900000000	0.00000000000000	-11.29694500000000	0.00000000000000	0.00000000000000	-19.97243400000000	0.00000000000000	
23.36157300000000	2.32979800000000	157.11276000000001	-14.00717900000000	0.33553200000000	0.00000000000000	0.11561400000000	-69.85755600000000	744.72769500000004	-43.89402100000000	0.09866600000000	0.00000000000000	-0.08305600000000	0.00000000000000	-11.23018700000000	0.00000000000000	0.00000000000000	-19.98684900000000	0.00000000000000	
